<svg xmlns="http://www.w3.org/2000/svg" width="49.254" height="49.245" viewBox="0 0 49.254 49.245"><defs><style>.a{fill:#fff;}</style></defs><path class="a" d="M32.192,47.842c-4.933-2.063-11.552-6.978-17.7-13.146C8.221,28.414,3.464,21.945,1.434,16.95l-.255-.587c-1.658-3.987-1.567-7.28.27-9.79C3.056,3.894,7.486,0,10.774,0c.062,0,.122,0,.184,0l.071,0a5.523,5.523,0,0,1,3.41,1.746l.312.319c2.05,2.152,5.467,6.788,6.023,8.408l.062.217c.357,1.717-.06,2.841-1.128,4.709l-.268.474c-.494.909-.589,1.3-.43,1.757A21.95,21.95,0,0,0,31.39,30.118a1.3,1.3,0,0,0,.463.089,3.654,3.654,0,0,0,1.675-.676l.612-.348a6.137,6.137,0,0,1,3.089-1,5.412,5.412,0,0,1,1.13.126c1.268.266,5.4,3.262,7.978,5.567l.674.625.242.239A5.557,5.557,0,0,1,49,38.262c.113,3.242-3.812,7.976-6.413,9.462a8.049,8.049,0,0,1-4.8,1.52A13.345,13.345,0,0,1,32.192,47.842ZM10.757,3.605l-.213.011C8.9,3.836,5.551,6.71,4.43,8.567l-.193.286c-.975,1.6-.816,3.785.488,6.67l.255.6c2.048,4.623,6.564,10.586,12.39,16.361,5.737,5.691,11.82,10.2,16.268,12.06l.521.233a9.143,9.143,0,0,0,3.555.847,4.885,4.885,0,0,0,2.936-.929l.124-.08a18.646,18.646,0,0,0,2.642-2.526c1.263-1.465,2.03-2.85,2.006-3.614a2.215,2.215,0,0,0-.707-1.19l-.2-.2a48.928,48.928,0,0,0-6.885-5.248,1.517,1.517,0,0,0-.306-.033,4.028,4.028,0,0,0-1.859.762l-.6.341a6.107,6.107,0,0,1-2.956.922,5.245,5.245,0,0,1-1.8-.352A25.561,25.561,0,0,1,15.67,18.934c-.689-1.912-.255-3.244.849-5.177l.275-.485c.516-.937.638-1.352.536-1.842a49.666,49.666,0,0,0-4.966-6.65l-.428-.448-.226-.208a2.321,2.321,0,0,0-.82-.494ZM37.238,19.659A8.773,8.773,0,0,0,30.3,12.68,1.8,1.8,0,0,1,30.5,9.115l.237,0,.242.031a12.349,12.349,0,0,1,9.775,9.826,1.806,1.806,0,0,1-1.416,2.114,1.791,1.791,0,0,1-2.1-1.425Zm8.443-.164A17.455,17.455,0,0,0,40.729,9.157,17.27,17.27,0,0,0,30.444,4.193a1.8,1.8,0,0,1-.086-3.57L30.595.6l.244.011a20.857,20.857,0,0,1,12.423,6,21.074,21.074,0,0,1,5.981,12.483,1.8,1.8,0,0,1-1.58,1.992c-.066.007-.135.011-.2.011A1.792,1.792,0,0,1,45.681,19.495Z" transform="translate(0)"/></svg>