<svg xmlns="http://www.w3.org/2000/svg" width="41.857" height="49.245" viewBox="0 0 41.857 49.245"><defs><style>.a{fill:#fff;}</style></defs><path class="a" d="M18.5,48.463l-.148-.117-1.017-.685A51.11,51.11,0,0,1,6.171,37.181l-.778-1.017A26.346,26.346,0,0,1,0,20.994l.011-.7A20.958,20.958,0,0,1,20.927,0H21l.629.011A20.968,20.968,0,0,1,41.857,21.058v.253c-.124,6.5-3.291,13.22-9.158,19.432a52.126,52.126,0,0,1-9.221,7.618l-.122.1a4.158,4.158,0,0,1-4.855,0ZM20.4,3.745A17.232,17.232,0,0,0,3.725,20.927l.047.88a22.619,22.619,0,0,0,4.591,12.1,47.2,47.2,0,0,0,12.07,11.337l.2.153a.444.444,0,0,0,.587,0l.208-.157a48.3,48.3,0,0,0,8.576-7.08c5.21-5.515,8.019-11.354,8.126-16.885l-.009-.818A17.23,17.23,0,0,0,20.987,3.736ZM12.954,21.3a7.973,7.973,0,1,1,7.973,8A7.994,7.994,0,0,1,12.954,21.3Zm3.725,0a4.248,4.248,0,1,0,4.248-4.261A4.259,4.259,0,0,0,16.679,21.3Z" transform="translate(0 0)"/></svg>